<?xml version="1.0" encoding="UTF-8"?>
<svg width="752pt" height="752pt" version="1.1" viewBox="0 0 752 752" xmlns="http://www.w3.org/2000/svg">
 <path d="m506.53 246.22c-5.8203-0.99609-11.312-0.88281-16.461 0.33594-0.21094-7.6406-0.56641-15.297-1.0938-22.953v-0.085937c-0.95703-11.336-5.6211-20.727-14.004-28.188-8.6367-7.6992-18.68-11.164-30.141-10.375-9.0469 0.60547-16.918 3.7266-23.625 9.3594-0.59375-4.2773-1.1992-7.1836-1.7734-8.6914l-0.078125-0.16797c-4.4688-11.957-12.172-21.102-23.133-27.43l-0.085937-0.078126c-11.852-6.9609-24.711-7.4414-38.57-1.4375h0.089844c-14.098 5.5938-22.641 17.719-25.652 36.375v-0.16797c-0.51953 2.7305-0.90625 5.7344-1.1836 9.0312-1.2422-0.80078-2.5742-1.5312-3.9609-2.1953l-0.17188-0.085937c-10.207-4.625-20.637-5.1602-31.309-1.6055-0.0625 0.03125-0.15234 0.058594-0.24609 0.085937-10.633 3.8633-18.484 10.672-23.543 20.422v-0.085938c-4.8359 8.5-6.5508 20.402-5.1523 35.691h-0.085938c0.90625 11.113 10.996 57.16 30.293 138.15-0.39453-0.22656-0.78906-0.44922-1.1797-0.67188h0.085937c-9.8984-5.8398-20.781-10.312-32.66-13.422l0.085937 0.085938c-13.266-3.6992-27.41-2.4062-42.445 3.8828-17.844 7.293-25.5 20.965-22.957 41.012v0.09375c1.8984 19.305 14.695 31.797 38.398 37.461 15.113 3.5742 25.125 7.1211 30.039 10.633l0.089843 0.085937c4.4375 3.9062 9.1602 10.289 14.176 19.16 0.027344 0.0625 0.046875 0.11719 0.085937 0.16797 6.9141 12.68 17.434 22.559 31.562 29.621h-0.085937c4.168 2.1406 8.4414 4.0273 12.828 5.6562-4.5625 7.0312-6.6133 13.16-6.1602 18.395-0.68359 17.453 9.6328 31.402 30.969 41.859l-0.085937-0.089843c14.535 7.3555 30.652 12.145 48.359 14.348h0.089844c17.879 2.1484 35.836 0.17188 53.836-5.9023l0.089844-0.089844c21.227-6.8047 32.297-23.914 33.156-51.305 0.0625-1.457-0.13672-2.8008-0.58594-4.0586 40.887-23.23 52.562-69.758 35.027-139.59 11.449-35.172 18.961-71.434 22.527-108.78v-0.078126c1.0156-10.578-1.9414-20.195-8.8672-28.863-6.9648-8.6641-15.793-13.84-26.492-15.52zm-10.379 149.04c-0.72656 2.2109-0.78516 4.4375-0.17969 6.668 17.961 68.613 3.1211 110.44-44.555 125.49-3.0742 0.90625-5.3789 2.7578-6.918 5.5742-1.5352 2.832-1.8477 5.7891-0.92969 8.8672 0.89453 3.0664 2.7539 5.3711 5.5781 6.9141 2.8242 1.543 5.7812 1.8516 8.8555 0.9375 1.0469-0.29297 2.082-0.60547 3.125-0.9375-1.7461 12.012-7.3945 19.922-16.965 23.723l0.089844-0.089843c-14.59 4.9375-29.137 6.5703-43.633 4.8984-14.918-1.8477-28.516-5.8359-40.758-11.98l-0.089843-0.089844c-11.309-5.5352-17.309-12.508-17.98-20.934 0.58594-2.9922 2.9453-6.9883 7.0977-11.98 1.7109 0.29297 3.4258 0.54688 5.1406 0.76172 3.1836 0.39453 6.0508-0.39453 8.6133-2.3633 2.5312-1.9844 3.9922-4.5742 4.3867-7.7656 0.40625-3.1836-0.39062-6.0508-2.3633-8.6016-1.9844-2.5352-4.5742-4-7.7617-4.3945-12.344-1.5156-23.82-5-34.43-10.461h-0.089843c-9.668-4.832-16.902-11.555-21.691-20.18l-0.078124-0.15625c-6.8516-12.145-13.438-20.742-19.75-25.824l-0.085938-0.089844c-6.1445-5.4414-19.289-10.527-39.418-15.27-12.055-2.8789-18.953-8.8125-20.676-17.809v-0.085937c-1.0352-8.0352 1.8828-13.574 8.7812-16.629 9.7227-4.0586 18.863-5.0234 27.43-2.8672l0.078124 0.089844c9.7227 2.5195 18.645 6.1445 26.754 10.883h0.085937c9.9883 5.8242 18.816 9.4023 26.5 10.719 0.23047 0.074219 0.45312 0.125 0.66797 0.16797 0.4375 0.078125 0.89453 0.13281 1.3516 0.16406 3.7148 0.26953 10.668 0.14844 20.844-0.33203h0.16797c8.0078-0.29297 18.047 2.1797 30.129 7.4258v0.085938c11.82 5.3477 21.402 15.559 28.781 30.637 1.4102 2.8789 3.625 4.8477 6.668 5.9102 3.0156 1.0625 5.9766 0.89453 8.8555-0.50391 2.8945-1.4219 4.8633-3.6406 5.9141-6.6758 1.0586-3.0039 0.89063-5.9609-0.51172-8.8555-10.199-20.934-23.656-34.914-40.43-41.949v0.089844c-16.191-7.0977-29.727-10.246-40.586-9.457h-0.16797c-3.7422 0.17188-6.9844 0.28906-9.7031 0.33594-20.758-86.816-31.645-135.94-32.66-147.35h-0.089844c-0.84766-9.6875 0.019531-17.254 2.6211-22.707v-0.085937c2.3242-4.3555 5.8633-7.418 10.629-9.1992 0.089844-0.027344 0.16797-0.058594 0.25391-0.085937 4.7148-1.5117 9.3281-1.2539 13.844 0.75781 0.058594 0.03125 0.11719 0.058594 0.17188 0.089844 4.1406 2.0117 7.0039 5.1562 8.6094 9.4453l-0.085937-0.078126c2.5273 6.9727 4.832 14.008 6.9141 21.094 0.050782 0.21484 0.10938 0.4375 0.17188 0.67188 0.39062 1.1016 1.3086 4.168 2.7773 9.2031 0.042969 0.24609 0.10156 0.50391 0.17188 0.75781 7.1055 24.352 13.711 56.844 19.832 97.469 0.46875 3.1992 1.9844 5.7578 4.5586 7.6836 2.6094 1.8984 5.5039 2.6055 8.6914 2.1094 3.1562-0.46484 5.6953-1.9883 7.5977-4.5586 1.8945-2.582 2.5938-5.457 2.1055-8.6094-6.2305-41.77-12.977-75.219-20.254-100.34-4.2852-26.383-5.3633-45.996-3.2031-58.824v-0.16797c1.4883-9.2617 5.4258-15.477 11.812-18.652h0.089844c6.3945-2.7695 12.324-2.6875 17.809 0.25391l-0.085937-0.078124c6.0977 3.5352 10.414 8.6289 12.914 15.277 2.6992 8.4922 6.3477 61.609 10.977 159.33-0.011719 0.13672-0.011719 0.27734 0 0.42188 0.13281 3.1367 1.3672 5.7773 3.7148 7.9297 2.3398 2.1836 5.1055 3.2188 8.2656 3.125 3.1797-0.10938 5.8867-1.3164 8.0977-3.6289 2.1992-2.293 3.2617-5.0312 3.2109-8.1875v-0.42187c-1.2383-78.539-1.9688-119.89-2.1992-124.06v-0.16797c-0.35156-5 1.043-9.3867 4.2148-13.164l0.089843-0.085937c3.3516-3.8086 7.5195-5.8945 12.496-6.2461 4.9688-0.34375 9.3281 1.1523 13.082 4.4727 3.7305 3.3242 5.8164 7.5195 6.2422 12.57 0.55078 7.9023 0.95703 15.812 1.1875 23.715 0.10156 5.6055 0.16406 11.371 0.16406 17.301-0.046875 0.54688-0.046875 1.1172 0 1.6875-0.035156 28.59-2.0352 61.406-5.9883 98.48-0.34375 3.1836 0.50391 6.0234 2.5273 8.5312 2.0039 2.5156 4.5938 3.9531 7.7617 4.3047 3.1797 0.33594 6.0234-0.50391 8.5234-2.5312 2.5117-2.0039 3.9531-4.5938 4.3008-7.7656 3.8945-36.344 5.9453-68.727 6.1602-97.133 0.078126-0.046875 0.16406-0.10547 0.25781-0.17188 3.5352-2.4688 7.5859-3.3047 12.156-2.5312h0.082031c4.832 0.79297 8.8242 3.1641 11.98 7.0938 2.9609 3.6953 4.2852 7.7734 3.9688 12.238-3.5312 36.68-11.07 72.262-22.613 106.75z"/>
</svg>
